{
copyright = "Copyright \U201csahwar\U201d 2008-2019";
customParameters = (
{
name = description;
value = "Presenting the cyber-looking futuristic G-1 font, part of the Mikron font family by Sah War (sahwar).\r\n*could be used as a pixel/bitmap font but its PRIMARY USE is intended to be stylish big titles. Lowercase glyphs are rounded and are \"multipurpose-ready\".\r\nFor use at sizes multiple of 12 or 3, 6, 9 and above... for best results, please adjust the font size manually to fit your needs.\r\n(includes basic Latin + numbers + symbols).";
},
{
name = license;
value = "The FontStruction \U201cMikronG-1\U201d (https://fontstruct.com/fontstructions/show/87315) by \U201csahwar\U201d is licensed under a Creative Commons Attribution Share Alike license (http://creativecommons.org/licenses/by-sa/3.0/).\r\n";
},
{
name = licenseURL;
value = "http://creativecommons.org/licenses/by-sa/3.0/";
},
{
name = vendorID;
value = FSTR;
},
{
name = fontstructID;
value = 87315;
},
{
name = fontstructKey;
value = 48226afb5e3a2cd3c679d428d1fec62b81d7b504;
},
);
date = "2019-05-02 16:04:32 +0200";
designer = "\U201csahwar\U201d";
designerURL = "/fontstructors/27969";
familyName = "MikronG-1";
disablesAutomaticAlignment = 1;
fontMaster = (
{
ascender = 2040;
capHeight = 1428;
customParameters = (
{
name = typoAscender;
value = 2040;
},
{
name = typoDescender;
value = 0;
},
{
name = typoLineGap;
value = 0;
},
{
name = underlinePosition;
value = 0;
},
);
descender = 0;
id = 87315;
weightValue = 400;
widthValue = 5;
xHeight = 612;
},
);
glyphs = (
{
name = "brick-69";
transform = "{0.204,0,0,0.204,408,612}";
},
);
},
);
},
(
{
glyphname = "brick-55";
layers = (
{
layerId = 87315;
name = Regular;
paths = (
{
closed = 1;
nodes = (
"224.0 1000.0 OFFCURVE",
"0.0 776.0 OFFCURVE",
"0.0 500.0 CURVE SMOOTH",
"0.0 0.0 LINE",
"1000.0 0.0 LINE",
"1000.0 500.0 LINE",
"1000.0 776.0 OFFCURVE",
"776.0 1000.0 OFFCURVE",
"500.0 1000.0 CURVE SMOOTH",
);
},
);
width = 1000;
},
);
},
{
glyphname = "brick-53";
layers = (
{
layerId = 87315;
name = Regular;
paths = (
{
closed = 1;
nodes = (
"776.0 0.0 OFFCURVE",
"1000.0 224.0 OFFCURVE",
"1000.0 500.0 CURVE SMOOTH",
"1000.0 1000.0 LINE",
"0.0 1000.0 LINE",
"0.0 500.0 LINE",
"0.0 224.0 OFFCURVE",
"224.0 0.0 OFFCURVE",
"500.0 0.0 CURVE SMOOTH",
);
},
);
width = 1000;
},
);
},
{
glyphname = "brick-19";
layers = (
{
layerId = 87315;
name = Regular;
paths = (
{
closed = 1;
nodes = (
"0.0 224.0 OFFCURVE",
"224.0 0.0 OFFCURVE",
"500.0 0.0 CURVE SMOOTH",
"776.0 0.0 OFFCURVE",
"1000.0 224.0 OFFCURVE",
"1000.0 500.0 CURVE SMOOTH",
"1000.0 776.0 OFFCURVE",
"776.0 1000.0 OFFCURVE",
"500.0 1000.0 CURVE SMOOTH",
"224.0 1000.0 OFFCURVE",
"0.0 776.0 OFFCURVE",
"0.0 500.0 CURVE SMOOTH",
);
},
);
width = 1000;
},
);
},
{
glyphname = "brick-54";
layers = (
{
layerId = 87315;
name = Regular;
paths = (
{
closed = 1;
nodes = (
"0.0 224.0 OFFCURVE",
"224.0 0.0 OFFCURVE",
"500.0 0.0 CURVE SMOOTH",
"1000.0 0.0 LINE",
"1000.0 1000.0 LINE",
"500.0 1000.0 LINE",
"224.0 1000.0 OFFCURVE",
"0.0 776.0 OFFCURVE",
"0.0 500.0 CURVE SMOOTH",
);
},
);
width = 1000;
},
);
},
{
glyphname = "brick-1";
layers = (
{
layerId = 87315;
name = Regular;
paths = (
{
closed = 1;
nodes = (
"0.0 0.0 LINE",
"1000.0 0.0 LINE",
"1000.0 1000.0 LINE",
"0.0 1000.0 LINE",
);
},
);
width = 1000;
},
);
},
{
glyphname = "brick-13";
layers = (
{
layerId = 87315;
name = Regular;
paths = (
{
closed = 1;
nodes = (
"0.0 0.0 LINE",
"552.0 0.0 OFFCURVE",
"1000.0 447.0 OFFCURVE",
"1000.0 1000.0 CURVE SMOOTH",
"0.0 1000.0 LINE",
);
},
);
width = 1000;
},
);
},
{
glyphname = "brick-12";
layers = (
{
layerId = 87315;
name = Regular;
paths = (
{
closed = 1;
nodes = (
"1000.0 0.0 LINE",
"1000.0 552.0 OFFCURVE",
"553.0 1000.0 OFFCURVE",
"0.0 1000.0 CURVE SMOOTH",
"0.0 0.0 LINE",
);
},
);
width = 1000;
},
);
},
{
glyphname = "brick-56";
layers = (
{
layerId = 87315;
name = Regular;
paths = (
{
closed = 1;
nodes = (
"1000.0 776.0 OFFCURVE",
"776.0 1000.0 OFFCURVE",
"500.0 1000.0 CURVE SMOOTH",
"0.0 1000.0 LINE",
"0.0 0.0 LINE",
"500.0 0.0 LINE",
"776.0 0.0 OFFCURVE",
"1000.0 224.0 OFFCURVE",
"1000.0 500.0 CURVE SMOOTH",
);
},
);
width = 1000;
},
);
},
{
glyphname = "brick-11";
layers = (
{
layerId = 87315;
name = Regular;
paths = (
{
closed = 1;
nodes = (
"1000.0 1000.0 LINE",
"448.0 1000.0 OFFCURVE",
"0.0 553.0 OFFCURVE",
"0.0 0.0 CURVE SMOOTH",
"1000.0 0.0 LINE",
);
},
);
width = 1000;
},
);
},
{
glyphname = "brick-14";
layers = (
{
layerId = 87315;
name = Regular;
paths = (
{
closed = 1;
nodes = (
"0.0 1000.0 LINE",
"0.0 448.0 OFFCURVE",
"447.0 0.0 OFFCURVE",
"1000.0 0.0 CURVE SMOOTH",
"1000.0 1000.0 LINE",
);
},
);
width = 1000;
},
);
},
{
glyphname = "brick-62";
layers = (
{
layerId = 87315;
name = Regular;
paths = (
{
closed = 1;
nodes = (
"1000.0 776.0 OFFCURVE",
"776.0 1000.0 OFFCURVE",
"500.0 1000.0 CURVE SMOOTH",
"224.0 1000.0 OFFCURVE",
"0.0 776.0 OFFCURVE",
"0.0 500.0 CURVE SMOOTH",
"0.0 224.0 OFFCURVE",
"224.0 0.0 OFFCURVE",
"500.0 0.0 CURVE SMOOTH",
"1000.0 0.0 LINE",
"1000.0 500.0 LINE",
);
},
);
width = 1000;
},
);
},
{
glyphname = "brick-71";
layers = (
{
layerId = 87315;
name = Regular;
paths = (
{
closed = 1;
nodes = (
"0.0 0.0 LINE",
"500.0 0.0 LINE",
"224.0 0.0 OFFCURVE",
"0.0 224.0 OFFCURVE",
"0.0 500.0 CURVE SMOOTH",
);
},
);
width = 1000;
},
);
},
{
glyphname = "brick-69";
layers = (
{
layerId = 87315;
name = Regular;
paths = (
{
closed = 1;
nodes = (
"1000.0 1000.0 LINE",
"500.0 1000.0 LINE",
"776.0 1000.0 OFFCURVE",
"1000.0 776.0 OFFCURVE",
"1000.0 500.0 CURVE SMOOTH",
);
},
);
width = 1000;
},
);
},
{
glyphname = "brick-60";
layers = (
{
layerId = 87315;
name = Regular;
paths = (
{
closed = 1;
nodes = (
"0.0 224.0 OFFCURVE",
"224.0 0.0 OFFCURVE",
"500.0 0.0 CURVE SMOOTH",
"776.0 0.0 OFFCURVE",
"1000.0 224.0 OFFCURVE",
"1000.0 500.0 CURVE SMOOTH",
"1000.0 776.0 OFFCURVE SMOOTH",
"776.0 1000.0 OFFCURVE",
"500.0 1000.0 CURVE SMOOTH",
"0.0 1000.0 LINE",
"0.0 500.0 LINE",
);
},
);
width = 1000;
},
);
},
{
glyphname = "brick-58";
layers = (
{
layerId = 87315;
name = Regular;
paths = (
{
closed = 1;
nodes = (
"1000.0 776.0 OFFCURVE",
"776.0 1000.0 OFFCURVE",
"500.0 1000.0 CURVE SMOOTH",
"0.0 1000.0 LINE",
"0.0 500.0 LINE",
"0.0 224.0 OFFCURVE",
"224.0 0.0 OFFCURVE",
"500.0 0.0 CURVE SMOOTH",
"1000.0 0.0 LINE",
"1000.0 500.0 LINE",
);
},
);
width = 1000;
},
);
},
{
glyphname = "brick-70";
layers = (
{
layerId = 87315;
name = Regular;
paths = (
{
closed = 1;
nodes = (
"1000.0 0.0 LINE",
"1000.0 500.0 LINE",
"1000.0 224.0 OFFCURVE",
"776.0 0.0 OFFCURVE",
"500.0 0.0 CURVE SMOOTH",
);
},
);
width = 1000;
},
);
},
{
glyphname = "brick-73";
layers = (
{
layerId = 87315;
name = Regular;
paths = (
{
closed = 1;
nodes = (
"224.0 0.0 OFFCURVE",
"0.0 224.0 OFFCURVE",
"0.0 500.0 CURVE SMOOTH",
"0.0 0.0 LINE",
"500.0 0.0 LINE",
);
},
{
closed = 1;
nodes = (
"0.0 776.0 OFFCURVE",
"224.0 1000.0 OFFCURVE",
"500.0 1000.0 CURVE SMOOTH",
"0.0 1000.0 LINE",
"0.0 500.0 LINE",
);
},
);
width = 1000;
},
);
},
{
glyphname = "brick-59";
layers = (
{
layerId = 87315;
name = Regular;
paths = (
{
closed = 1;
nodes = (
"776.0 0.0 OFFCURVE",
"1000.0 224.0 OFFCURVE",
"1000.0 500.0 CURVE SMOOTH",
"1000.0 776.0 OFFCURVE",
"776.0 1000.0 OFFCURVE",
"500.0 1000.0 CURVE SMOOTH",
"224.0 1000.0 OFFCURVE",
"0.0 776.0 OFFCURVE",
"0.0 500.0 CURVE SMOOTH",
"0.0 0.0 LINE",
"500.0 0.0 LINE",
);
},
);
width = 1000;
},
);
},
{
glyphname = "brick-50";
layers = (
{
layerId = 87315;
name = Regular;
paths = (
{
closed = 1;
nodes = (
"1000.0 500.0 LINE",
"1000.0 776.0 OFFCURVE",
"776.0 1000.0 OFFCURVE",
"500.0 1000.0 CURVE SMOOTH",
"0.0 1000.0 LINE",
"0.0 0.0 LINE",
"1000.0 0.0 LINE",
);
},
);
width = 1000;
},
);
},
{
glyphname = "brick-68";
layers = (
{
layerId = 87315;
name = Regular;
paths = (
{
closed = 1;
nodes = (
"0.0 1000.0 LINE",
"0.0 500.0 LINE",
"0.0 776.0 OFFCURVE",
"224.0 1000.0 OFFCURVE",
"500.0 1000.0 CURVE SMOOTH",
);
},
);
width = 1000;
},
);
},
{
glyphname = "brick-61";
layers = (
{
layerId = 87315;
name = Regular;
paths = (
{
closed = 1;
nodes = (
"224.0 1000.0 OFFCURVE",
"0.0 776.0 OFFCURVE",
"0.0 500.0 CURVE SMOOTH",
"0.0 224.0 OFFCURVE",
"224.0 0.0 OFFCURVE",
"500.0 0.0 CURVE SMOOTH",
"776.0 0.0 OFFCURVE",
"1000.0 224.0 OFFCURVE",
"1000.0 500.0 CURVE SMOOTH",
"1000.0 1000.0 LINE",
"500.0 1000.0 LINE",
);
},
);
width = 1000;
},
);
},
{
glyphname = "brick-49";
layers = (
{
layerId = 87315;
name = Regular;
paths = (
{
closed = 1;
nodes = (
"1000.0 1000.0 LINE",
"500.0 1000.0 LINE",
"224.0 1000.0 OFFCURVE",
"0.0 775.0 OFFCURVE",
"0.0 499.0 CURVE SMOOTH",
"0.0 -1.0 LINE",
"1000.0 -1.0 LINE",
);
},
);
width = 1000;
},
);
},
{
glyphname = "brick-163";
layers = (
{
layerId = 87315;
name = Regular;
paths = (
{
closed = 1;
nodes = (
"500.0 0.0 LINE",
"1000.0 1000.0 LINE",
"0.0 1000.0 LINE",
);
},
);
width = 1000;
},
);
},
{
glyphname = "brick-165";
layers = (
{
layerId = 87315;
name = Regular;
paths = (
{
closed = 1;
nodes = (
"500.0 1000.0 LINE",
"0.0 0.0 LINE",
"1000.0 0.0 LINE",
);
},
);
width = 1000;
},
);
},
{
glyphname = "brick-72";
layers = (
{
layerId = 87315;
name = Regular;
paths = (
{
closed = 1;
nodes = (
"1000.0 224.0 OFFCURVE",
"776.0 0.0 OFFCURVE",
"500.0 0.0 CURVE SMOOTH",
"1000.0 0.0 LINE",
"1000.0 500.0 LINE",
);
},
{
closed = 1;
nodes = (
"224.0 0.0 OFFCURVE",
"0.0 224.0 OFFCURVE",
"0.0 500.0 CURVE SMOOTH",
"0.0 0.0 LINE",
"500.0 0.0 LINE",
);
},
);
width = 1000;
},
);
},
{
glyphname = "brick-75";
layers = (
{
layerId = 87315;
name = Regular;
paths = (
{
closed = 1;
nodes = (
"776.0 1000.0 OFFCURVE",
"1000.0 776.0 OFFCURVE",
"1000.0 500.0 CURVE SMOOTH",
"1000.0 1000.0 LINE",
"500.0 1000.0 LINE",
);
},
{
closed = 1;
nodes = (
"1000.0 224.0 OFFCURVE",
"776.0 0.0 OFFCURVE",
"500.0 0.0 CURVE SMOOTH",
"1000.0 0.0 LINE",
"1000.0 500.0 LINE",
);
},
);
width = 1000;
},
);
},
{
glyphname = "brick-57";
layers = (
{
layerId = 87315;
name = Regular;
paths = (
{
closed = 1;
nodes = (
"224.0 1000.0 OFFCURVE",
"0.0 776.0 OFFCURVE",
"0.0 500.0 CURVE SMOOTH",
"0.0 0.0 LINE",
"500.0 0.0 LINE",
"776.0 0.0 OFFCURVE",
"1000.0 224.0 OFFCURVE",
"1000.0 500.0 CURVE SMOOTH",
"1000.0 1000.0 LINE",
"500.0 1000.0 LINE",
);
},
);
width = 1000;
},
);
},
{
glyphname = "brick-74";
layers = (
{
layerId = 87315;
name = Regular;
paths = (
{
closed = 1;
nodes = (
"0.0 776.0 OFFCURVE",
"224.0 1000.0 OFFCURVE",
"500.0 1000.0 CURVE SMOOTH",
"0.0 1000.0 LINE",
"0.0 500.0 LINE",
);
},
{
closed = 1;
nodes = (
"776.0 1000.0 OFFCURVE",
"1000.0 776.0 OFFCURVE",
"1000.0 500.0 CURVE SMOOTH",
"1000.0 1000.0 LINE",
"500.0 1000.0 LINE",
);
},
);
width = 1000;
},
);
},
{
glyphname = "brick-51";
layers = (
{
layerId = 87315;
name = Regular;
paths = (
{
closed = 1;
nodes = (
"500.0 0.0 LINE",
"776.0 0.0 OFFCURVE",
"1000.0 224.0 OFFCURVE",
"1000.0 500.0 CURVE SMOOTH",
"1000.0 1000.0 LINE",
"0.0 1000.0 LINE",
"0.0 0.0 LINE",
);
},
);
width = 1000;
},
);
},
{
glyphname = "brick-64";
layers = (
{
layerId = 87315;
name = Regular;
paths = (
{
closed = 1;
nodes = (
"1000.0 1000.0 LINE",
"0.0 1000.0 LINE",
"552.0 1000.0 OFFCURVE",
"1000.0 552.0 OFFCURVE",
"1000.0 0.0 CURVE SMOOTH",
);
},
);
width = 1000;
},
);
},
{
glyphname = "brick-63";
layers = (
{
layerId = 87315;
name = Regular;
paths = (
{
closed = 1;
nodes = (
"0.0 1000.0 LINE",
"0.0 0.0 LINE",
"0.0 552.0 OFFCURVE",
"448.0 1000.0 OFFCURVE",
"1000.0 1000.0 CURVE SMOOTH",
);
},
);
width = 1000;
},
);
},
{
glyphname = "brick-65";
layers = (
{
layerId = 87315;
name = Regular;
paths = (
{
closed = 1;
nodes = (
"1000.0 0.0 LINE",
"1000.0 1000.0 LINE",
"1000.0 448.0 OFFCURVE",
"552.0 0.0 OFFCURVE",
"0.0 0.0 CURVE SMOOTH",
);
},
);
width = 1000;
},
);
},
{
glyphname = "brick-66";
layers = (
{
layerId = 87315;
name = Regular;
paths = (
{
closed = 1;
nodes = (
"0.0 0.0 LINE",
"1000.0 0.0 LINE",
"448.0 0.0 OFFCURVE",
"0.0 448.0 OFFCURVE",
"0.0 1000.0 CURVE SMOOTH",
);
},
);
width = 1000;
},
);
},
{
glyphname = "brick-52";
layers = (
{
layerId = 87315;
name = Regular;
paths = (
{
closed = 1;
nodes = (
"0.0 500.0 LINE",
"0.0 224.0 OFFCURVE",
"224.0 0.0 OFFCURVE",
"500.0 0.0 CURVE SMOOTH",
"1000.0 0.0 LINE",
"1000.0 1000.0 LINE",
"0.0 1000.0 LINE",
);
},
);
width = 1000;
},
);
},
),
);
disablesNiceNames = 1;
instances = (
{
name = Regular;
},
);
manufacturer = "https://fontstruct.com";
manufacturerURL = "https://www.fontstruct.com";
unitsPerEm = 2048;
versionMajor = 1;
versionMinor = 0;
kerning = {
87315 = ();
};
}